:version 1.10
:name ASF
:units
  mass 1
  length 1
  angle deg
:documentation
  ASF file generated by Kaydara
:root
  axis xyz
  order  tx ty tz rx ry rz
  position 0 0 0
  orientation 0 0 0
:bonedata
  begin
    id 1
    name abdomenDummy
    direction 1 -1.27917e-005 -1.26829e-007
    length 1.79048
    axis 0 0 0 xyz
  end
  begin
    id 2
    name abdomen
    direction 0.987238 0.159249 -9.68575e-008
    length 8.61378
    axis 2.73208e-005 5.54953e-006 9.16328 xyz
    dof rx ry rz
  end
  begin
    id 3
    name chest
    direction 0 0 0
    length 0
    axis 2.65071e-005 8.63688e-006 2.59796 xyz
    dof rx ry rz
  end
  begin
    id 4
    name neckDummyDummy
    direction 0.998972 0.0453274 -1.50742e-007
    length 9.56202
    axis 2.65071e-005 8.63688e-006 2.59796 xyz
  end
  begin
    id 5
    name neckDummy
    direction 0.99977 0.0214525 -1.61748e-007
    length 1.93574
    axis 2.62932e-005 9.26758e-006 1.22924 xyz
    dof rx ry rz
  end
  begin
    id 6
    name neck
    direction 0.99928 -0.0379406 -1.88707e-007
    length 3.70367
    axis 2.56966e-005 1.08122e-005 -2.17436 xyz
    dof rx ry rz
  end
  begin
    id 7
    name head
    direction 0.992648 -0.121037 -2.25408e-007
    length 6.35158
    axis 2.47068e-005 1.29149e-005 -6.95196 xyz
    dof rx ry rz
  end
  begin
    id 8
    name figureHair
    direction -0.86681 -0.498639 -7.83376e-008
    length 8.29884
    axis -2.7515e-005 4.48842e-006 -150.09 xyz
    dof rx ry rz
  end
  begin
    id 9
    name lCollarDummy
    direction 0.994611 0.0451299 -0.0933417
    length 9.60395
    axis 2.65071e-005 8.63688e-006 2.59796 xyz
  end
  begin
    id 10
    name lCollar
    direction 0.0384146 0.00127577 -0.999261
    length 6.95318
    axis 90.4899 87.7973 1.90202 xyz
    dof rx ry rz
  end
  begin
    id 11
    name lShldr
    direction -0.030648 0.0920515 -0.995282
    length 9.61158
    axis -161.793 84.4324 108.415 xyz
    dof rx ry rz
  end
  begin
    id 12
    name lForeArm
    direction 0.000163956 -0.0977586 -0.99521
    length 8.6068
    axis 0.134773 84.3899 -89.8525 xyz
    dof rx ry rz
  end
  begin
    id 13
    name lHand
    direction -0.0190533 -0.1444 -0.989336
    length 7.61479
    axis -7.3729 81.6249 -97.517 xyz
    dof rx ry rz
  end
  begin
    id 14
    name rCollarDummy
    direction 0.994871 0.0442627 0.0909555
    length 9.60761
    axis 2.65071e-005 8.63688e-006 2.59796 xyz
  end
  begin
    id 15
    name rCollar
    direction 0.0334251 -4.74072e-007 0.999441
    length 6.97058
    axis -178.152 -88.0845 -0.000674207 xyz
    dof rx ry rz
  end
  begin
    id 16
    name rShldr
    direction -0.026922 0.0719509 0.997045
    length 9.60913
    axis 71.2822 -85.594 110.514 xyz
    dof rx ry rz
  end
  begin
    id 17
    name rForeArm
    direction 0.00134679 -0.118986 0.992895
    length 8.57176
    axis -88.7923 -83.1659 -89.3516 xyz
    dof rx ry rz
  end
  begin
    id 18
    name rHand
    direction -0.0185183 -0.0768601 0.99687
    length 7.69687
    axis -74.5596 -85.4655 -103.546 xyz
    dof rx ry rz
  end
  begin
    id 19
    name lThighDummy
    direction -0.236086 -0.0385456 -0.970967
    length 4.99155
    axis 0 0 0 xyz
  end
  begin
    id 20
    name lThigh
    direction -0.993968 0.0148998 -0.108653
    length 13.572
    axis -91.4001 6.23768 179.141 xyz
    dof rx ry rz
  end
  begin
    id 21
    name lShin
    direction -0.992341 0.0904576 -0.0841193
    length 18.5862
    axis -91.4558 4.82538 174.792 xyz
    dof rx ry rz
  end
  begin
    id 22
    name lFoot
    direction 0.0209381 -0.999771 -0.00453005
    length 8.44474
    axis 4.86759 0.259522 -88.8001 xyz
    dof rx ry rz
  end
  begin
    id 23
    name rThighDummy
    direction -0.236086 -0.0385456 0.970967
    length 4.99155
    axis 0 0 0 xyz
  end
  begin
    id 24
    name rThigh
    direction -0.993968 0.0148995 0.108653
    length 13.5721
    axis -89.7059 -6.2377 179.141 xyz
    dof rx ry rz
  end
  begin
    id 25
    name rShin
    direction -0.9925 0.0899962 0.0827255
    length 18.6716
    axis -89.2745 -4.74775 174.819 xyz
    dof rx ry rz
  end
  begin
    id 26
    name rFoot
    direction 0.0301721 -0.999545 9.70865e-005
    length 8.45013
    axis -2.50066e-005 -0.00555246 -88.271 xyz
    dof rx ry rz
  end
:hierarchy
  begin
    root abdomenDummy lThighDummy rThighDummy
    abdomenDummy abdomen
    abdomen chest
    chest neckDummyDummy lCollarDummy rCollarDummy
    neckDummyDummy neckDummy
    neckDummy neck
    neck head
    head figureHair
    lCollarDummy lCollar
    lCollar lShldr
    lShldr lForeArm
    lForeArm lHand
    rCollarDummy rCollar
    rCollar rShldr
    rShldr rForeArm
    rForeArm rHand
    lThighDummy lThigh
    lThigh lShin
    lShin lFoot
    rThighDummy rThigh
    rThigh rShin
    rShin rFoot
  end

:SAMPLES-PER-SECOND 25
:FULLY-SPECIFIED
:DEGREES
350
root  4.63352 36.5971 1.69386 170.988 1.15054 93.1869
abdomen  -0.321391 0.904274 -3.702
chest  -0.579582 -2.44279 -14.0059
neckDummy  9.09964e-021 0 8.72668e-016
neck  -1.44682 7.4553 -21.3265
head  -1.65091 -7.13868 -15.3967
figureHair  0 1.51661e-021 -9.5315e-016
lCollar  -5.15695e-016 -6.42944e-016 -7.59357e-014
lShldr  6.58399 15.3709 -72.7818
lForeArm  43.3585 -76.4937 7.37979
lHand  0.254698 0.195082 5.2986
rCollar  1.7976e-016 -5.12864e-014 1.62755e-015
rShldr  -19.1361 71.088 -5.33558
rForeArm  19.3401 1.01217 27.7555
rHand  0.317599 -22.379 3.03093
lThigh  -5.79773 -11.0785 -5.55608
lShin  -22.8906 8.86424 -7.76985
lFoot  13.6162 -1.62122 0.802593
rThigh  11.9163 -15.5389 -7.98543
rShin  -16.83 10.1645 -0.810582
rFoot  12.3779 -1.52051 1.02533
351
root  4.69945 36.6414 1.42631 170.298 1.11629 93.5573
abdomen  -0.206957 2.18236 -3.45407
chest  -0.526164 -2.11616 -13.9181
neckDummy  9.09964e-021 0 8.72668e-016
neck  -0.456121 8.09058 -21.2714
head  -0.724616 -7.11157 -15.3648
figureHair  0 1.51661e-021 -9.5315e-016
lCollar  -5.15695e-016 -6.42944e-016 -7.59357e-014
lShldr  5.90918 14.8561 -72.0005
lForeArm  43.784 -76.0924 7.10906
lHand  0.254698 0.195082 5.2986
rCollar  1.7976e-016 -5.12864e-014 1.62755e-015
rShldr  -23.0483 71.9148 -8.16995
rForeArm  18.4093 1.00943 28.0231
rHand  0.325058 -21.8653 2.95419
lThigh  -5.95447 -11.5488 -5.01667
lShin  -23.3987 9.04402 -7.571
lFoot  13.0356 -1.54732 0.751507
rThigh  11.7725 -14.3527 -7.2622
rShin  -14.7042 7.06629 0.461453
rFoot  11.6872 -1.42018 0.514699
352
root  4.76583 36.6622 1.20821 170.282 1.18619 93.8164
abdomen  -0.365189 2.67807 -3.42551
chest  -0.651427 -1.19902 -13.7838
neckDummy  9.09964e-021 0 8.72668e-016
neck  0.242701 8.58442 -20.9743
head  -0.0880507 -7.0412 -15.5017
figureHair  0 1.51661e-021 -9.5315e-016
lCollar  -5.15695e-016 -6.42944e-016 -7.59357e-014
lShldr  5.03966 14.0731 -71.6533
lForeArm  43.9295 -75.7772 6.91332
lHand  0.254698 0.195082 5.2986
rCollar  1.7976e-016 -5.12864e-014 1.62755e-015
rShldr  -27.295 72.3464 -11.3281
rForeArm  17.4214 1.01053 27.9873
rHand  0.332835 -21.373 2.87432
lThigh  -5.77765 -12.1982 -4.89793
lShin  -23.5767 9.44991 -7.20902
lFoot  12.9349 -1.5195 0.615701
rThigh  11.7887 -13.5797 -7.02113
rShin  -14.5986 5.18393 0.94116
rFoot  12.1983 -1.45596 -0.711222
353
root  4.79659 36.6501 1.04181 170.333 1.07967 93.8017
abdomen  -0.491969 2.43213 -3.63263
chest  -0.672461 -0.182224 -13.8197
neckDummy  9.09964e-021 0 8.72668e-016
neck  0.617347 9.18256 -20.7361
head  0.195322 -6.77444 -15.5375
figureHair  0 1.51661e-021 -9.5315e-016
lCollar  -5.15695e-016 -6.42944e-016 -7.59357e-014
lShldr  4.31621 13.2453 -72.042
lForeArm  44.2151 -75.5903 6.79683
lHand  0.254698 0.195082 5.2986
rCollar  1.7976e-016 -5.12864e-014 1.62755e-015
rShldr  -30.5192 72.1041 -13.4701
rForeArm  16.8623 1.01728 27.5018
rHand  0.364487 -21.0414 2.68837
lThigh  -5.83587 -12.7722 -4.68564
lShin  -23.6296 10.3853 -6.88827
lFoot  12.8958 -1.5334 0.775013
rThigh  12.1275 -12.59 -7.09921
rShin  -15.448 3.60836 1.60482
rFoot  14.2204 -1.64027 -1.70515
354
root  4.80109 36.6292 0.891588 170.516 0.898453 93.761
abdomen  -0.427134 2.55547 -3.66938
chest  -0.600963 -0.0792737 -14.035
neckDummy  9.09964e-021 0 8.72668e-016
neck  0.784838 9.89046 -20.6996
head  0.269091 -6.56611 -15.4104
figureHair  0 1.51661e-021 -9.5315e-016
lCollar  -5.15695e-016 -6.42944e-016 -7.59357e-014
lShldr  4.25354 12.68 -72.67
lForeArm  44.2778 -75.7886 6.93292
lHand  0.254698 0.195082 5.2986
rCollar  1.7976e-016 -5.12864e-014 1.62755e-015
rShldr  -32.3907 71.4261 -14.9761
rForeArm  16.6302 1.02401 27.0127
rHand  0.42242 -20.6939 2.36507
lThigh  -6.23136 -13.188 -4.22963
lShin  -23.2504 11.3053 -6.76764
lFoot  12.5979 -1.52492 1.0202
rThigh  12.5151 -11.5241 -7.18987
rShin  -15.1674 2.26812 2.4728
rFoot  15.8542 -1.79087 -2.09474
355
root  4.82469 36.6197 0.751127 170.881 0.761551 93.8987
abdomen  -0.327386 3.31249 -3.67957
chest  -0.590845 -0.642981 -14.055
neckDummy  9.09964e-021 0 8.72668e-016
neck  0.972912 10.3154 -20.5377
head  0.384865 -6.35563 -15.3684
figureHair  0 1.51661e-021 -9.5315e-016
lCollar  -5.15695e-016 -6.42944e-016 -7.59357e-014
lShldr  4.78141 12.3543 -72.8602
lForeArm  43.7106 -76.3197 7.26419
lHand  0.254698 0.195082 5.2986
rCollar  1.7976e-016 -5.12864e-014 1.62755e-015
rShldr  -33.1353 70.9287 -16.3476
rForeArm  16.3647 1.02925 26.6394
rHand  0.425925 -20.4967 2.32435
lThigh  -6.57141 -13.6861 -3.79753
lShin  -22.5987 11.9299 -6.69428
lFoot  12.2826 -1.4952 1.09968
rThigh  12.5737 -11.2883 -7.14213
rShin  -14.7121 1.93137 2.86518
rFoot  16.9044 -1.887 -2.29461
356
root  4.88118 36.6217 0.635671 171.236 0.577423 94.1713
abdomen  -0.283921 4.18221 -4.00903
chest  -0.637132 -1.25873 -13.7084
neckDummy  9.09964e-021 0 8.72668e-016
neck  1.22642 10.2073 -20.2155
head  0.584755 -5.79728 -15.3965
figureHair  0 1.51661e-021 -9.5315e-016
lCollar  -5.15695e-016 -6.42944e-016 -7.59357e-014
lShldr  5.41047 12.0574 -72.666
lForeArm  43.2767 -76.6962 7.50746
lHand  0.254698 0.195082 5.2986
rCollar  1.7976e-016 -5.12864e-014 1.62755e-015
rShldr  -33.3127 70.7088 -17.2258
rForeArm  16.7087 1.03504 26.2174
rHand  0.370146 -20.6413 2.62043
lThigh  -6.76862 -14.4472 -3.41696
lShin  -22.104 12.6163 -6.51687
lFoot  12.1338 -1.48025 1.12998
rThigh  12.4109 -11.6524 -6.88751
rShin  -14.7644 2.06247 2.9146
rFoot  17.3897 -1.89216 -2.89442
357
root  4.96184 36.6112 0.515153 171.338 0.144592 94.5185
abdomen  -0.163465 5.21924 -4.47549
chest  -0.629709 -2.22809 -13.2811
neckDummy  9.09964e-021 0 8.72668e-016
neck  1.45241 9.75124 -19.958
head  0.775839 -4.9452 -15.351
figureHair  0 1.51661e-021 -9.5315e-016
lCollar  -5.15695e-016 -6.42944e-016 -7.59357e-014
lShldr  5.66699 11.7756 -72.5875
lForeArm  43.564 -76.7243 7.53652
lHand  0.254698 0.195082 5.2986
rCollar  1.7976e-016 -5.12864e-014 1.62755e-015
rShldr  -33.1605 70.4212 -16.9762
rForeArm  17.5781 1.03836 25.9968
rHand  0.365275 -20.6623 2.64637
lThigh  -7.4067 -15.6431 -2.58399
lShin  -21.6039 14.0016 -6.40942
lFoot  11.8217 -1.47248 1.41576
rThigh  12.1416 -12.3112 -6.39408
rShin  -14.6249 2.3693 3.07889
rFoot  17.5629 -1.8539 -3.6638
358
root  5.07311 36.5861 0.350555 170.881 -0.612411 94.9995
abdomen  0.129342 6.60119 -4.96711
chest  -0.497168 -3.77879 -12.8497
neckDummy  9.09964e-021 0 8.72668e-016
neck  1.68695 9.20952 -19.6567
head  0.98887 -4.14973 -15.3508
figureHair  0 1.51661e-021 -9.5315e-016
lCollar  -5.15695e-016 -6.42944e-016 -7.59357e-014
lShldr  5.2956 11.703 -72.8255
lForeArm  43.9694 -76.6495 7.48345
lHand  0.254698 0.195082 5.2986
rCollar  1.7976e-016 -5.12864e-014 1.62755e-015
rShldr  -32.3208 70.1022 -15.6154
rForeArm  17.4683 1.03457 26.3659
rHand  0.429892 -20.2502 2.27478
lThigh  -8.8099 -17.2113 -0.950618
lShin  -21.0201 16.0853 -6.43504
lFoot  11.1826 -1.45106 2.00494
rThigh  11.5646 -13.4229 -5.55432
rShin  -14.7968 2.9145 3.23546
rFoot  19.1358 -1.92951 -4.65931
359
root  5.2222 36.5628 0.145595 169.818 -1.62457 95.6558
abdomen  0.520802 7.96198 -5.66704
chest  -0.235784 -5.33603 -12.1064
neckDummy  9.09964e-021 0 8.72668e-016
neck  2.00938 8.56003 -19.2595
head  1.30204 -3.43887 -15.3449
figureHair  0 1.51661e-021 -9.5315e-016
lCollar  -5.15695e-016 -6.42944e-016 -7.59357e-014
lShldr  4.57755 11.9799 -73.076
lForeArm  43.9626 -76.6554 7.48809
lHand  0.254698 0.195082 5.2986
rCollar  1.7976e-016 -5.12864e-014 1.62755e-015
rShldr  -31.0062 70.0914 -14.113
rForeArm  16.4044 1.025 27.2013
rHand  0.477295 -19.8352 1.97851
lThigh  -10.7392 -19.0506 1.18254
lShin  -20.5946 18.555 -6.21541
lFoot  10.5155 -1.43103 2.72189
rThigh  10.6581 -15.2583 -4.41606
rShin  -16.7271 3.93297 3.17489
rFoot  22.7974 -2.06822 -5.71114
